<mxfile host="drawio-plugin" modified="2023-04-21T09:41:51.471Z" agent="5.0 (Macintosh; Intel Mac OS X 10_15_7) AppleWebKit/537.36 (KHTML, like Gecko) Chrome/97.0.4692.45 Safari/537.36" version="20.5.3" etag="Z_2_TVsfKJc4APKWzV9b" type="embed"><diagram id="7oDORZiDYAR0e0F16EpZ" name="Page-1"><mxGraphModel dx="581" dy="661" grid="1" gridSize="10" guides="1" tooltips="1" connect="1" arrows="1" fold="1" page="1" pageScale="1" pageWidth="850" pageHeight="1100" math="0" shadow="0"><root><mxCell id="0"/><mxCell id="1" parent="0"/><mxCell id="4" style="edgeStyle=orthogonalEdgeStyle;rounded=0;orthogonalLoop=1;jettySize=auto;html=1;exitX=1;exitY=0.5;exitDx=0;exitDy=0;entryX=0;entryY=0.5;entryDx=0;entryDy=0;" edge="1" parent="1" source="2" target="3"><mxGeometry relative="1" as="geometry"/></mxCell><mxCell id="2" value="doGetBean" style="rounded=0;whiteSpace=wrap;html=1;" vertex="1" parent="1"><mxGeometry x="10" y="60" width="120" height="60" as="geometry"/></mxCell><mxCell id="3" value="&lt;pre style=&quot;background-color: rgb(43, 43, 43); font-family: &amp;quot;JetBrains Mono&amp;quot;, monospace; font-size: 9pt;&quot;&gt;&lt;p style=&quot;font-size: 9pt; font-family: &amp;quot;JetBrains Mono&amp;quot;, monospace;&quot;&gt;&lt;font color=&quot;#a9b7c6&quot;&gt;getObjectForBeanInstance&lt;/font&gt;&lt;/p&gt;&lt;/pre&gt;" style="rounded=0;whiteSpace=wrap;html=1;" vertex="1" parent="1"><mxGeometry x="200" y="60" width="200" height="60" as="geometry"/></mxCell></root></mxGraphModel></diagram></mxfile>